<svg xmlns="http://www.w3.org/2000/svg" xmlns:xlink="http://www.w3.org/1999/xlink" width="500" zoomAndPan="magnify" viewBox="0 0 375 374.999991" height="500" preserveAspectRatio="xMidYMid meet" version="1.0"><defs><g/></defs><rect x="-37.5" width="450" fill="#ffffff" y="-37.499999" height="449.999989" fill-opacity="1"/><rect x="-37.5" width="450" fill="#020817" y="-37.499999" height="449.999989" fill-opacity="1"/><g fill="#ffffff" fill-opacity="1"><g transform="translate(196.251702, 339.254099)"><g><path d="M 65.796875 0 L 104.046875 0 L 104.046875 -93.671875 L 150.109375 -93.671875 L 150.109375 -122.234375 L 104.046875 -122.234375 L 104.046875 -128.515625 L 112.875 -128.515625 L 112.875 -140.59375 L 57.625 -140.59375 L 57.625 -128.515625 L 65.796875 -128.515625 L 65.796875 -122.234375 L 31.453125 -122.234375 L 31.453125 -127.5 L 19.203125 -127.5 L 19.203125 -93.671875 L 65.796875 -93.671875 Z M 12.234375 -0.34375 L 47.765625 -0.34375 L 58.484375 -45.046875 L 58.65625 -45.21875 L 58.65625 -85.515625 L 18.875 -85.515625 L 18.875 -73.4375 L 26.34375 -73.4375 L 26.34375 -51.34375 Z M 111.34375 -45.046875 L 122.234375 -0.34375 L 157.59375 -0.34375 L 143.65625 -51.34375 L 143.65625 -73.4375 L 150.953125 -73.4375 L 150.953125 -85.515625 L 111.34375 -85.515625 Z M 117.8125 -128.515625 L 133.625 -128.515625 L 133.625 -140.9375 L 117.8125 -140.9375 Z M 137.1875 -128.515625 L 153 -128.515625 L 153 -140.9375 L 137.1875 -140.9375 Z M 137.1875 -128.515625 "/></g></g></g><g fill="#ffffff" fill-opacity="1"><g transform="translate(8.629567, 337.13053)"><g><path d="M 47.765625 0 L 83.484375 0 L 145 -43.921875 L 144.828125 -86.5 L 151.203125 -86.5 L 151.203125 -99.734375 L 32.359375 -99.734375 L 32.359375 -105.09375 L 17.4375 -105.09375 L 17.4375 -67.71875 L 95.21875 -67.71875 L 95.21875 -54.984375 L 74.421875 -41.0625 L 47.765625 -41.0625 Z M 33.53125 -141.3125 L 33.6875 -108.78125 L 135.78125 -108.78125 L 135.78125 -134.4375 L 48.4375 -134.4375 L 48.4375 -141.3125 Z M 33.53125 -141.3125 "/></g></g></g><g fill="#ffffff" fill-opacity="1"><g transform="translate(196.251702, 165.209725)"><g><path d="M 21.59375 0 L 97.921875 0 L 97.921875 -12.0625 L 87.71875 -12.0625 L 87.71875 -63.578125 L 148.578125 -63.578125 L 148.578125 -98.59375 L 133.453125 -98.59375 L 133.453125 -92.8125 L 87.71875 -92.8125 L 87.71875 -127.84375 L 97.921875 -127.84375 L 97.921875 -140.078125 L 21.59375 -140.078125 L 21.59375 -127.84375 L 31.28125 -127.84375 L 31.28125 -12.0625 L 21.59375 -12.0625 Z M 21.59375 0 "/></g></g></g><g fill="#ffffff" fill-opacity="1"><g transform="translate(8.751716, 165.209725)"><g><path d="M 17 0 L 67.65625 0 L 91.796875 -33.484375 L 114.234375 0 L 156.90625 0 L 114.0625 -64.4375 L 127.328125 -82.953125 L 127.328125 -123.9375 L 135.484375 -123.9375 L 135.484375 -136.171875 L 44.03125 -136.171875 L 44.03125 -141.78125 L 33.15625 -141.78125 L 33.15625 -104.375 L 86.1875 -104.375 L 86.1875 -89.078125 Z M 17 0 "/></g></g></g></svg>